<svg width="277" height="277" viewBox="0 0 277 277" fill="none" xmlns="http://www.w3.org/2000/svg">
<path d="M101.977 155.12C101.977 162.404 96.0267 168.355 88.7426 168.355C81.4586 168.355 75.5082 162.404 75.5082 155.12C75.5082 147.836 81.4586 141.886 88.7426 141.886H101.977V155.12Z" fill="#E01E5A"/>
<path d="M108.646 155.12C108.646 147.836 114.596 141.886 121.88 141.886C129.164 141.886 135.115 147.836 135.115 155.12V188.257C135.115 195.542 129.164 201.492 121.88 201.492C114.596 201.492 108.646 195.542 108.646 188.257V155.12Z" fill="#E01E5A"/>
<path d="M121.88 101.977C114.596 101.977 108.646 96.0267 108.646 88.7426C108.646 81.4586 114.596 75.5082 121.88 75.5082C129.164 75.5082 135.115 81.4586 135.115 88.7426V101.977H121.88Z" fill="#36C5F0"/>
<path d="M121.88 108.646C129.164 108.646 135.114 114.596 135.114 121.88C135.114 129.164 129.164 135.115 121.88 135.115H88.7426C81.4586 135.115 75.5082 129.164 75.5082 121.88C75.5082 114.596 81.4586 108.646 88.7426 108.646H121.88Z" fill="#36C5F0"/>
<path d="M175.023 121.88C175.023 114.596 180.973 108.646 188.257 108.646C195.541 108.646 201.492 114.596 201.492 121.88C201.492 129.164 195.541 135.115 188.257 135.115H175.023V121.88Z" fill="#2EB67D"/>
<path d="M168.355 121.88C168.355 129.164 162.404 135.114 155.12 135.114C147.836 135.114 141.886 129.164 141.886 121.88V88.7426C141.886 81.4586 147.836 75.5082 155.12 75.5082C162.404 75.5082 168.355 81.4586 168.355 88.7426V121.88Z" fill="#2EB67D"/>
<path d="M155.12 175.023C162.404 175.023 168.355 180.973 168.355 188.258C168.355 195.542 162.404 201.492 155.12 201.492C147.836 201.492 141.886 195.542 141.886 188.258V175.023H155.12Z" fill="#ECB22E"/>
<path d="M155.12 168.355C147.836 168.355 141.886 162.404 141.886 155.12C141.886 147.836 147.836 141.886 155.12 141.886H188.257C195.542 141.886 201.492 147.836 201.492 155.12C201.492 162.404 195.542 168.355 188.257 168.355H155.12Z" fill="#ECB22E"/>
</svg>
