<svg width="138" height="138" viewBox="0 -13 138 138" fill="none" xmlns="http://www.w3.org/2000/svg">
<g clip-path="url(#clip0_208_560)">
<path d="M138 13.2579C132.923 15.5071 127.466 17.0265 121.739 17.7101C127.584 14.2109 132.074 8.67004 134.188 2.06726C128.717 5.30801 122.658 7.66052 116.208 8.92844C111.044 3.433 103.686 0 95.5428 0C79.9074 0 67.23 12.6591 67.23 28.2737C67.23 30.4898 67.4805 32.648 67.9635 34.7174C44.4331 33.5383 23.5716 22.2815 9.60735 5.175C7.17026 9.35084 5.7737 14.2075 5.7737 19.3894C5.7737 29.1992 10.7721 37.8534 18.369 42.9236C13.728 42.7768 9.36239 41.5048 5.5453 39.3873C5.54208 39.5051 5.54209 39.6236 5.54209 39.7428C5.54209 53.4418 15.3015 64.8688 28.2535 67.468C25.8778 68.1144 23.3765 68.4596 20.7946 68.4596C18.9702 68.4596 17.1969 68.2819 15.4678 67.9525C19.071 79.1852 29.5265 87.3598 41.9162 87.5872C32.2265 95.1712 20.019 99.6916 6.75374 99.6916C4.46845 99.6916 2.21491 99.5573 0 99.2961C12.5297 107.319 27.4117 112 43.4004 112C95.4768 112 123.955 68.9165 123.955 31.5517C123.955 30.3258 123.928 29.1068 123.873 27.8934C129.404 23.9077 134.204 18.9284 138 13.2579H138Z" fill="#2AA9E0"/>
</g>
<defs>
<clipPath id="clip0_208_560">
<rect width="138" height="138" fill="white"/>
</clipPath>
</defs>
</svg>
